<svg width="19" height="19" viewBox="0 0 19 19" fill="none" xmlns="http://www.w3.org/2000/svg">
<path fill-rule="evenodd" clip-rule="evenodd" d="M1.33559 1.33559C0 2.67119 0 4.82078 0 9.12V9.88C0 14.1792 0 16.3288 1.33559 17.6644C2.67119 19 4.82078 19 9.12 19H9.88C14.1792 19 16.3288 19 17.6644 17.6644C19 16.3288 19 14.1792 19 9.88V9.12C19 4.82078 19 2.67119 17.6644 1.33559C16.3288 0 14.1792 0 9.88 0H9.12C4.82078 0 2.67119 0 1.33559 1.33559ZM3.2063 5.77921C3.30921 10.7192 5.77921 13.688 10.1096 13.688H10.3551V10.8617C11.9463 11.02 13.1496 12.1838 13.6325 13.688H15.8809C15.2634 11.4396 13.6404 10.1967 12.627 9.72171C13.6404 9.13587 15.0654 7.71087 15.4058 5.77921H13.3633C12.9199 7.34671 11.6059 8.77171 10.3551 8.90629V5.77921H8.3125V11.2575C7.04583 10.9409 5.44671 9.40504 5.37546 5.77921H3.2063Z" fill="black"/>
</svg>
